<?xml version="1.0" encoding="UTF-8"?>
<svg width="22px" height="22px" viewBox="0 0 22 22" version="1.1" xmlns="http://www.w3.org/2000/svg" xmlns:xlink="http://www.w3.org/1999/xlink">
    <!-- Generator: Sketch 63.1 (92452) - https://sketch.com -->
    <title>Combined Shape</title>
    <desc>Created with Sketch.</desc>
    <g id="Page-1" stroke="none" stroke-width="1" fill="none" fill-rule="evenodd">
        <g id="Contact" transform="translate(-1293.000000, -569.000000)" fill="#6161FF">
            <path d="M1315,580 L1315,589.681845 C1315,590.409467 1314.384,591 1313.625,591 L1313.625,591 L1294.375,591 C1293.616,591 1293,590.409467 1293,589.681845 L1293,589.681845 L1293,580 L1303.73187,584.356501 C1303.81713,584.392091 1303.90925,584.409227 1304,584.409227 C1304.09075,584.409227 1304.18287,584.392091 1304.26813,584.356501 L1304.26813,584.356501 L1315,580 Z M1310.875,569 C1311.63125,569 1312.25,569.631378 1312.25,570.403061 L1312.25,570.403061 L1312.25,574.233418 L1314.68375,575.804847 C1314.87625,575.931122 1315,576.155612 1315,576.394133 L1315,576.394133 L1315,578.218112 L1310.875,580 L1310.875,570.403061 L1297.125,570.403061 L1297.125,580 L1293,578.218112 L1293,576.394133 C1293,576.155612 1293.12375,575.931122 1293.31625,575.804847 L1293.31625,575.804847 L1295.75,574.233418 L1295.75,570.403061 C1295.75,569.631378 1296.36875,569 1297.125,569 L1297.125,569 Z M1304.3,577 C1304.6864,577 1305,577.224 1305,577.5 C1305,577.776 1304.6864,578 1304.3,578 L1304.3,578 L1298.7,578 C1298.3136,578 1298,577.776 1298,577.5 C1298,577.224 1298.3136,577 1298.7,577 L1298.7,577 Z M1309.3125,575 C1309.692,575 1310,575.224 1310,575.5 C1310,575.776 1309.692,576 1309.3125,576 L1309.3125,576 L1299.6875,576 C1299.308,576 1299,575.776 1299,575.5 C1299,575.224 1299.308,575 1299.6875,575 L1299.6875,575 Z M1309.3125,572 C1309.692,572 1310,572.224 1310,572.5 C1310,572.776 1309.692,573 1309.3125,573 L1309.3125,573 L1299.6875,573 C1299.308,573 1299,572.776 1299,572.5 C1299,572.224 1299.308,572 1299.6875,572 L1299.6875,572 Z" id="Combined-Shape"></path>
        </g>
    </g>
</svg>