<?xml version="1.0" encoding="UTF-8"?>
<svg width="12px" height="22px" viewBox="0 0 12 22" version="1.1" xmlns="http://www.w3.org/2000/svg" xmlns:xlink="http://www.w3.org/1999/xlink">
    <!-- Generator: Sketch 63.1 (92452) - https://sketch.com -->
    <title>delete-icon</title>
    <desc>Created with Sketch.</desc>
    <g id="Page-1" stroke="none" stroke-width="1" fill="none" fill-rule="evenodd">
        <g id="Admin-Users" transform="translate(-1288.000000, -168.000000)" fill="#FF6161" fill-rule="nonzero">
            <g id="trash-(1)" transform="translate(1288.000000, 168.000000)">
                <g id="delete-icon">
                    <path d="M10.6081874,5 L1.3921915,5 C0.624033392,5 8.41104963e-13,5.64266112 8.41104963e-13,6.4361707 L0.628596708,20.5762704 C0.628596708,21.3620043 1.25377093,22 2.02116848,22 L9.97883013,22 C10.7473685,22 11.3714019,21.3655034 11.3714019,20.5887115 L12,6.42295202 C12.0007592,5.63916205 11.3752047,5 10.6081874,5 Z M9.97806958,20.5949321 L2.0032955,20.5646069 L1.37431851,6.42372959 C1.37431851,6.41439876 1.38230432,6.40584549 1.3921915,6.40584549 L10.6252998,6.41128848 L9.97806958,20.5949321 Z" id="Shape"></path>
                    <path d="M5.99948427,20 C6.55079938,20 7,19.6531677 7,19.2270024 L7,8.77259892 C7,8.34683233 6.55183084,8 5.99948427,8 C5.44868489,8 5,8.34683233 5,8.77259892 L5,19.2266038 C5.00051573,19.652769 5.44816916,20 5.99948427,20 Z" id="Path"></path>
                    <path d="M8.45932655,20 L8.46411099,20 C8.71744688,20 8.92580908,19.6575415 8.92844052,19.2353488 L8.99996784,8.78219269 C9.00140317,8.57528239 8.95475492,8.3807309 8.86767818,8.23282392 C8.78060144,8.08491694 8.66529653,8.00239203 8.53587753,8 C8.28230241,8 8.07441866,8.34245847 8.07202644,8.76425249 L8.00002068,19.2174086 C7.99762846,19.6439867 8.20311999,19.9952159 8.45932655,20 Z" id="Path"></path>
                    <path d="M3.53613798,20 L3.54092463,20 C3.79701089,19.9948173 4.00307655,19.643588 3.99996523,19.2174086 L3.92840467,8.76425249 C3.92553268,8.34245847 3.71707368,8 3.45907277,8 C3.33461964,8.00239203 3.21878249,8.08491694 3.13190463,8.23282392 C3.0452661,8.3807309 2.99859618,8.57528239 3.00003218,8.78219269 L3.07159273,19.2353488 C3.07422539,19.6571429 3.28292372,20 3.53613798,20 Z" id="Path"></path>
                    <path d="M1.63271223,4 L11.4043562,3.38333991 C11.5731936,3.3730754 11.7276004,3.29135413 11.8405194,3.15238847 C11.9530777,3.0142124 12.0100783,2.83655744 11.9985339,2.65258587 C11.9794134,2.28582708 11.7030685,2 11.3671975,2 L1.59555358,2.61666009 C1.42707696,2.6269246 1.27230936,2.70864587 1.16011186,2.84761153 C1.04755361,2.9857876 0.99019219,3.16344256 1.00137586,3.34780892 C1.01905328,3.71338334 1.29684128,4 1.63271223,4 Z" id="Shape"></path>
                    <path d="M4.75579605,2 L4.79866784,1.99904676 C4.9969499,1.99046761 5.18039171,1.92246992 5.3118927,1.80744579 C5.44463037,1.69305715 5.51141144,1.5456229 5.4994568,1.39215147 L5.50811361,1.23645582 L7.50041541,1.1627387 L7.51072113,1.30254704 C7.53421817,1.60631243 7.86029115,1.8439866 8.25396966,1.8439866 L8.29766591,1.84303336 C8.49636019,1.83413647 8.67938978,1.76613878 8.811303,1.65143239 C8.94404067,1.53704375 9.00958505,1.38929175 8.9988671,1.23582033 L8.98856138,1.09632974 C8.94115507,0.458613061 8.22676256,-0.0326226035 7.39529706,0.0016939888 L5.42195779,0.089391947 C4.5904923,0.125932763 3.9535988,0.677857956 4.00265403,1.31779885 L4.01295975,1.45792494 C4.0352201,1.76232582 4.36129308,2 4.75579605,2 Z" id="Shape"></path>
                </g>
            </g>
        </g>
    </g>
</svg>