<?xml version="1.0" encoding="UTF-8"?>
<svg width="21px" height="24px" viewBox="0 0 21 24" version="1.1" xmlns="http://www.w3.org/2000/svg" xmlns:xlink="http://www.w3.org/1999/xlink">
    <!-- Generator: Sketch 63.1 (92452) - https://sketch.com -->
    <title>edit-icon</title>
    <desc>Created with Sketch.</desc>
    <g id="Page-1" stroke="none" stroke-width="1" fill="none" fill-rule="evenodd">
        <g id="Admin-Users" transform="translate(-1245.000000, -168.000000)" fill="#000000" fill-rule="nonzero">
            <g id="edit-icon" transform="translate(1245.000000, 168.000000)">
                <path d="M15,11 C15,10.4477 14.5996179,10 14.1056911,10 L4.89430894,10 C4.40038211,10 4,10.4477 4,11 C4,11.5523 4.40038211,12 4.89430894,12 L14.1056911,12 C14.5996179,12 15,11.5523 15,11 Z" id="Path"></path>
                <path d="M4.96904507,15 C4.43384148,15 4,15.4477 4,16 C4,16.5523 4.43384148,17 4.96904507,17 L11.0309549,17 C11.5661585,17 12,16.5523 12,16 C12,15.4477 11.5661585,15 11.0309549,15 L4.96904507,15 Z" id="Path"></path>
                <path d="M6.51410115,22.125 L3.54776799,22.125 C2.56964835,22.125 1.77388399,21.283875 1.77388399,20.25 L1.77388399,3.75 C1.77388399,2.716125 2.56964835,1.875 3.54776799,1.875 L14.452232,1.875 C15.4303516,1.875 16.226116,2.716125 16.226116,3.75 L16.226116,9.515625 C16.226116,10.0334062 16.6231999,10.453125 17.113058,10.453125 C17.6029161,10.453125 18,10.0334062 18,9.515625 L18,3.75 C18,1.68225 16.4084713,0 14.452232,0 L3.54776799,0 C1.59152872,0 0,1.68225 0,3.75 L0,20.25 C0,22.31775 1.59152872,24 3.54776799,24 L6.51410115,24 C7.00395921,24 7.40104314,23.5802812 7.40104314,23.0625 C7.40104314,22.5447188 7.00395921,22.125 6.51410115,22.125 Z" id="Path"></path>
                <path d="M20.2023496,12.877482 C19.1388689,11.7076644 17.4084965,11.7076144 16.3456976,12.8766819 L11.3541024,18.3552326 C11.2480907,18.4715943 11.1699003,18.6149087 11.12635,18.7725245 L10.0392758,22.7091702 C9.94290151,23.0582053 10.0268653,23.4371934 10.2584363,23.6982697 C10.4319099,23.8938393 10.6675722,24 10.9092807,24 C10.9901532,24 11.0717986,23.9880988 11.1519438,23.9636463 L14.8216661,22.8454839 C14.9726828,22.7994793 15.1103343,22.7113205 15.2212556,22.5895082 L20.2023951,17.1206085 C21.2658759,15.9507909 21.2658759,14.0473996 20.2023496,12.877482 Z M14.10586,20.9880972 L12.2596567,21.5506538 L12.7999435,19.5940071 L16.1679962,15.8973855 L17.454047,17.3120277 L14.10586,20.9880972 Z M18.9172536,15.7056663 L18.7410978,15.8990357 L17.4552744,14.4846435 L17.6308392,14.2919242 C17.9853327,13.901985 18.5621235,13.901985 18.9166171,14.2919242 C19.2711107,14.6818634 19.2711107,15.3163271 18.9172536,15.7056663 Z" id="Shape"></path>
                <path d="M14.1056911,5 L4.89430894,5 C4.40038211,5 4,5.4477 4,6 C4,6.5523 4.40038211,7 4.89430894,7 L14.1056911,7 C14.5996179,7 15,6.5523 15,6 C15,5.4477 14.5996179,5 14.1056911,5 Z" id="Path"></path>
            </g>
        </g>
    </g>
</svg>