<?xml version="1.0" encoding="UTF-8"?>
<svg width="361px" height="337px" viewBox="0 0 361 337" version="1.1" xmlns="http://www.w3.org/2000/svg" xmlns:xlink="http://www.w3.org/1999/xlink">
    <!-- Generator: Sketch 63.1 (92452) - https://sketch.com -->
    <title>wag-header-bar-logo-white</title>
    <desc>Created with Sketch.</desc>
    <g id="Page-1" stroke="none" stroke-width="1" fill="none" fill-rule="evenodd">
        <g id="wag-header-bar-logo-white" transform="translate(0.525900, 0.021700)" fill="#FFFFFF">
            <path d="M182.5293,6.6751 C187.1703,14.3661 190.0123,21.4441 189.8203,31.4771 C196.5583,20.8021 190.4293,9.3771 182.5293,6.6751" id="Fill-1"></path>
            <path d="M196.3193,24.5457 C201.3493,20.8277 199.4763,10.0437 193.2933,8.6477 C195.6973,14.0277 197.1943,17.7577 196.3193,24.5457" id="Fill-3"></path>
            <path d="M150.7817,41.5706 C144.8847,35.2876 140.7987,29.2206 138.9647,19.7716 C134.7867,31.1356 142.8297,40.6216 150.7817,41.5706" id="Fill-5"></path>
            <path d="M140.2905,41.8806 C136.9555,37.3186 134.8015,34.1196 134.2605,27.5766 C130.2885,32.0746 134.2105,41.8136 140.2905,41.8806" id="Fill-7"></path>
            <path d="M118.123,230.2322 C123.61,224.7692 131.973,215.7522 132.572,215.2032 C131.39,212.5012 130.29,210.1042 129.361,208.2092 C122.443,220.5222 120.419,218.7922 119.371,219.2412 C114.941,221.1362 110.15,229.9662 113.503,230.2542 C114.093,230.3052 118.123,230.2322 118.123,230.2322" id="Fill-9"></path>
            <path d="M132.3794,183.908 C134.3664,182.497 136.6714,181.369 139.0534,180.382 C138.9144,176.045 138.9054,171.23 139.1494,165.28 C139.8944,147.027 145.0714,132.611 149.3314,125.53 C148.4074,133.713 145.1094,143.674 143.3944,161.789 C143.0094,165.85 142.9504,172.011 143.1144,178.889 C148.8714,177.07 154.6754,176.206 158.2064,176.066 C164.7144,173.553 172.3884,172.107 180.3894,172.107 C187.9454,172.107 194.8914,173.65 201.0074,175.958 C208.7744,176.456 216.1174,178.455 216.8024,178.637 C216.9584,171.833 216.8764,165.816 216.4944,161.789 C214.7794,143.674 211.4814,133.713 210.5574,125.53 C214.8174,132.611 219.9944,147.027 220.7394,165.28 C220.9774,171.104 221.0624,175.887 221.0364,180.163 C223.3104,181.032 225.4054,181.981 227.2964,183.028 C227.4614,181.184 227.6464,179.329 228.0034,177.386 C231.6494,157.519 232.1194,146.04 230.2764,134.345 C228.4534,122.762 223.0424,110.675 212.1664,99.218 C206.0954,92.821 197.1314,87.904 187.1944,85.929 C187.0644,56.047 170.9204,7.404 146.9554,0 C164.7334,21.456 173.3514,60.666 171.5944,86.019 C162.6784,87.977 155.1164,92.385 149.3344,98.476 C138.4594,109.933 131.7484,119.052 129.0494,134.592 C127.0244,146.258 128.2394,157.519 131.8854,177.386 C132.3134,179.712 132.2974,181.781 132.3794,183.908" id="Fill-11"></path>
            <path d="M260.0791,251.3279 C254.9931,249.3719 246.5781,245.8219 237.0951,231.4639 C235.0491,228.3659 229.9591,223.5999 225.9681,219.2759 C225.7071,219.9149 225.4671,220.4609 225.1971,221.1409 C224.1721,223.7269 222.1231,225.2649 219.7051,225.2649 C217.7131,225.2649 215.5211,223.6149 213.6241,221.2879 L212.6911,221.9909 C208.0101,225.5299 208.0251,228.8489 208.5051,233.5299 C223.3291,240.5349 237.6871,255.2269 243.8131,261.1689 C250.3931,264.7679 262.5331,264.3039 266.8041,263.2459 C271.0761,262.1889 263.7111,252.7249 260.0791,251.3279" id="Fill-13"></path>
            <path d="M179.6997,261.782 C176.2887,261.782 173.4647,257.711 173.1647,252.78 C173.9327,252.571 174.7387,252.377 175.4487,252.166 C176.5307,251.848 177.4237,251.671 178.3577,251.461 C178.5747,254.117 178.6737,256.765 179.6547,259.385 C180.7037,256.728 180.8447,254.101 181.1237,251.481 C182.0377,251.69 182.9007,251.858 183.9517,252.166 C184.6607,252.377 185.4667,252.571 186.2347,252.78 C185.9357,257.711 183.1107,261.782 179.6997,261.782 M192.4617,212.747 C190.5557,212.747 189.0117,209.947 189.0117,206.494 C189.0117,203.04 190.5557,200.24 192.4617,200.24 C194.3667,200.24 195.9117,203.04 195.9117,206.494 C195.9117,209.947 194.3667,212.747 192.4617,212.747 M211.7767,218.339 C207.9587,210.004 210.5417,199.451 209.2877,194.034 C208.7867,191.873 207.9607,190.144 207.0057,188.482 C209.5467,191.471 211.6827,195.592 212.0717,201.455 C213.3327,220.5 219.7067,223.808 221.5267,219.21 C229.5127,199.038 233.5047,198.197 230.7737,192.103 C226.9367,183.547 209.5767,179.538 201.2877,179.439 C188.4727,174.314 171.3057,174.462 158.9127,179.43 C150.5667,179.576 133.3617,183.598 129.5497,192.103 C126.8177,198.197 130.8097,199.038 138.7947,219.21 C140.6157,223.808 146.9897,220.5 148.2507,201.455 C149.1377,188.053 158.9777,183.613 162.3067,181.578 C169.4987,179.112 177.9487,178.207 186.0307,178.972 C182.0497,182.248 180.3547,192.214 180.8917,200.24 C181.6707,211.869 186.8467,220.537 197.4527,222.011 C200.2407,222.399 202.2727,222.149 204.0617,221.722 C201.1677,226.313 201.5887,231.009 202.0407,235.282 C202.4427,239.101 202.8287,242.719 200.7417,245.95 C196.4587,252.537 190.5687,250.79 184.8477,249.136 C183.5977,248.765 182.4077,248.411 181.2817,248.178 L181.3597,242.118 C186.6127,241.041 192.8847,235.535 191.3567,233.019 C189.9717,230.74 183.7367,229.965 179.6087,229.965 C175.4807,229.965 169.3457,230.74 167.9607,233.019 C166.4227,235.55 172.7777,241.098 178.0487,242.13 L178.1207,248.178 C176.9927,248.409 175.8027,248.764 174.5517,249.136 C168.8617,250.82 162.9557,252.567 158.6737,245.95 C156.5707,242.719 156.9567,239.101 157.3587,235.266 C157.9777,229.423 158.6737,222.805 150.6797,216.729 L148.7627,219.265 C155.3337,224.243 154.7927,229.438 154.2047,234.942 C153.7727,239.147 153.3087,243.508 156.0137,247.681 C159.0907,252.444 162.9407,253.836 166.7437,253.836 C167.8857,253.836 169.0047,253.625 170.1197,253.428 C170.6887,259.858 174.6787,264.936 179.6997,264.936 C184.7217,264.936 188.7117,259.858 189.2807,253.428 C190.3957,253.625 191.5147,253.836 192.6557,253.836 C196.4587,253.836 200.3087,252.444 203.4007,247.681 C206.1067,243.508 205.6427,239.147 205.1947,234.942 C204.6067,229.454 204.2337,223.461 211.7767,218.339" id="Fill-15"></path>
            <path d="M146.6894,221.991 L146.2934,221.69 C144.4684,223.803 142.4034,225.264 140.5234,225.264 C138.1064,225.264 136.0564,223.727 135.0324,221.141 C134.7614,220.461 134.5224,219.915 134.2604,219.276 C130.2694,223.6 125.1794,228.366 123.1334,231.464 C113.6504,245.822 105.2354,249.372 100.1494,251.328 C96.5174,252.725 89.1534,262.189 93.4244,263.246 C97.6954,264.304 109.8354,264.768 116.4154,261.169 C122.4234,255.342 136.3484,241.049 150.8644,233.891 C151.3764,228.989 151.4874,225.616 146.6894,221.991" id="Fill-17"></path>
            <path d="M170.3926,206.4939 C170.3926,203.0399 168.8476,200.2399 166.9416,200.2399 C165.0366,200.2399 163.4916,203.0399 163.4916,206.4939 C163.4916,209.9469 165.0366,212.7469 166.9416,212.7469 C168.8476,212.7469 170.3926,209.9469 170.3926,206.4939" id="Fill-19"></path>
            <path d="M242.1445,230.2322 C242.1445,230.2322 246.1735,230.3052 246.7645,230.2542 C250.1165,229.9672 245.3265,221.1372 240.8965,219.2412 C239.8475,218.7922 237.8235,220.5222 230.9065,208.2092 C229.9775,210.1042 228.8775,212.5012 227.6955,215.2032 C228.2945,215.7522 236.6565,224.7692 242.1445,230.2322" id="Fill-21"></path>
            <polygon id="Fill-23" points="0 281.5564 7.935 281.5564 14.059 308.6074 21.625 281.5564 28.333 281.5564 36.01 308.6074 42.075 281.5564 50.011 281.5564 40.463 323.9344 32.726 323.9344 24.919 296.5374 17.256 323.9344 9.594 323.9344"></polygon>
            <path d="M70.3061,299.0437 C67.8751,299.0437 65.8551,299.9027 64.2481,301.6217 C62.6401,303.3417 61.8361,305.5457 61.8361,308.2337 C61.8361,310.9407 62.6541,313.1707 64.2901,314.9167 C65.9271,316.6647 67.9421,317.5387 70.3341,317.5387 C72.8041,317.5387 74.8521,316.6797 76.4781,314.9607 C78.1051,313.2417 78.9191,310.9897 78.9191,308.2047 C78.9191,305.4777 78.1051,303.2687 76.4781,301.5797 C74.8521,299.8887 72.7941,299.0437 70.3061,299.0437 L70.3061,299.0437 Z M78.5741,292.5917 L86.4381,292.5917 L86.4381,323.9347 L78.5741,323.9347 L78.5741,320.6207 C77.0381,322.0807 75.4991,323.1327 73.9551,323.7747 C72.4111,324.4197 70.7381,324.7407 68.9341,324.7407 C64.8871,324.7407 61.3861,323.1717 58.4311,320.0297 C55.4771,316.8897 54.0011,312.9867 54.0011,308.3197 C54.0011,303.4807 55.4301,299.5157 58.2881,296.4227 C61.1461,293.3307 64.6181,291.7847 68.7041,291.7847 C70.5841,291.7847 72.3481,292.1407 73.9981,292.8517 C75.6481,293.5617 77.1731,294.6267 78.5741,296.0477 L78.5741,292.5917 Z" id="Fill-25"></path>
            <path d="M109.3979,299.1306 C106.9209,299.1306 104.8759,299.9616 103.2629,301.6216 C101.6489,303.2836 100.8419,305.3716 100.8419,307.8886 C100.8419,310.4996 101.6689,312.6416 103.3199,314.3136 C104.9709,315.9836 107.0459,316.8176 109.5429,316.8176 C111.9809,316.8176 113.9939,316.0026 115.5769,314.3696 C117.1619,312.7366 117.9549,310.5956 117.9549,307.9446 C117.9549,305.3346 117.1569,303.2116 115.5639,301.5796 C113.9689,299.9466 111.9139,299.1306 109.3979,299.1306 L109.3979,299.1306 Z M117.5509,292.5916 L125.3869,292.5916 L125.3869,319.4416 C125.3869,324.7406 124.3209,328.6406 122.1889,331.1356 C119.3269,334.5156 115.0159,336.2066 109.2539,336.2066 C106.1809,336.2066 103.5979,335.8216 101.5049,335.0546 C99.4109,334.2856 97.6449,333.1576 96.2049,331.6696 C94.7639,330.1806 93.6979,328.3706 93.0069,326.2376 L101.6779,326.2376 C102.4449,327.1206 103.4359,327.7896 104.6449,328.2406 C105.8549,328.6926 107.2849,328.9176 108.9369,328.9176 C111.0499,328.9176 112.7499,328.5916 114.0369,327.9396 C115.3229,327.2846 116.2309,326.4416 116.7589,325.4026 C117.2869,324.3656 117.5509,322.5806 117.5509,320.0446 C116.1679,321.4276 114.7179,322.4216 113.2009,323.0266 C111.6839,323.6326 109.9639,323.9346 108.0449,323.9346 C103.8389,323.9346 100.2849,322.4166 97.3849,319.3826 C94.4849,316.3486 93.0359,312.5066 93.0359,307.8596 C93.0359,302.8856 94.5709,298.8906 97.6449,295.8756 C100.4289,293.1486 103.7519,291.7846 107.6119,291.7846 C109.4179,291.7846 111.1219,292.1156 112.7259,292.7776 C114.3289,293.4426 115.9379,294.5306 117.5509,296.0476 L117.5509,292.5916 Z" id="Fill-27"></path>
            <polygon id="Fill-29" points="134.2304 281.5564 157.3634 281.5564 157.3634 289.4524 142.2394 289.4524 142.2394 297.1144 157.3634 297.1144 157.3634 304.8644 142.2394 304.8644 142.2394 316.0124 157.3634 316.0124 157.3634 323.9344 134.2304 323.9344"></polygon>
            <path d="M164.018,292.5916 L171.883,292.5916 L171.883,295.8026 C173.666,294.2996 175.281,293.2536 176.73,292.6656 C178.178,292.0786 179.659,291.7846 181.175,291.7846 C184.281,291.7846 186.919,292.8706 189.084,295.0396 C190.908,296.8836 191.816,299.6116 191.816,303.2216 L191.816,323.9346 L184.04,323.9346 L184.04,310.2086 C184.04,306.4676 183.872,303.9846 183.538,302.7556 C183.202,301.5286 182.618,300.5926 181.783,299.9496 C180.949,299.3076 179.92,298.9866 178.694,298.9866 C177.103,298.9866 175.739,299.5186 174.598,300.5826 C173.459,301.6486 172.668,303.1206 172.227,304.9996 C171.997,305.9796 171.883,308.0986 171.883,311.3606 L171.883,323.9346 L164.018,323.9346 L164.018,292.5916 Z" id="Fill-31"></path>
            <path d="M214.2895,299.0437 C211.8585,299.0437 209.8385,299.9027 208.2305,301.6217 C206.6225,303.3417 205.8195,305.5457 205.8195,308.2337 C205.8195,310.9407 206.6365,313.1707 208.2745,314.9167 C209.9105,316.6647 211.9255,317.5387 214.3175,317.5387 C216.7875,317.5387 218.8345,316.6797 220.4625,314.9607 C222.0885,313.2417 222.9025,310.9897 222.9025,308.2047 C222.9025,305.4777 222.0885,303.2687 220.4625,301.5797 C218.8345,299.8887 216.7775,299.0437 214.2895,299.0437 L214.2895,299.0437 Z M222.5555,292.5917 L230.4205,292.5917 L230.4205,323.9347 L222.5555,323.9347 L222.5555,320.6207 C221.0225,322.0807 219.4825,323.1327 217.9375,323.7747 C216.3935,324.4197 214.7195,324.7407 212.9165,324.7407 C208.8695,324.7407 205.3685,323.1717 202.4145,320.0297 C199.4595,316.8897 197.9825,312.9867 197.9825,308.3197 C197.9825,303.4807 199.4125,299.5157 202.2695,296.4227 C205.1295,293.3307 208.6005,291.7847 212.6865,291.7847 C214.5665,291.7847 216.3315,292.1407 217.9815,292.8517 C219.6295,293.5617 221.1555,294.6267 222.5555,296.0477 L222.5555,292.5917 Z" id="Fill-33"></path>
            <path d="M254.4468,299.0437 C251.9688,299.0437 249.9148,299.8887 248.2818,301.5797 C246.6498,303.2687 245.8338,305.4777 245.8338,308.2047 C245.8338,310.9897 246.6498,313.2417 248.2818,314.9607 C249.9148,316.6797 251.9688,317.5387 254.4468,317.5387 C256.8468,317.5387 258.8688,316.6647 260.5108,314.9167 C262.1538,313.1707 262.9748,310.9407 262.9748,308.2337 C262.9748,305.5457 262.1678,303.3417 260.5548,301.6217 C258.9408,299.9027 256.9048,299.0437 254.4468,299.0437 L254.4468,299.0437 Z M246.1788,280.4917 L246.1788,296.0477 C247.6008,294.6267 249.1358,293.5617 250.7878,292.8517 C252.4398,292.1407 254.2068,291.7847 256.0898,291.7847 C260.1798,291.7847 263.6558,293.3307 266.5188,296.4227 C269.3798,299.5157 270.8108,303.4807 270.8108,308.3197 C270.8108,312.9867 269.3308,316.8897 266.3738,320.0297 C263.4158,323.1717 259.9108,324.7407 255.8588,324.7407 C254.0528,324.7407 252.3728,324.4197 250.8168,323.7747 C249.2628,323.1327 247.7158,322.0807 246.1788,320.6207 L246.1788,323.9347 L238.3728,323.9347 L238.3728,280.4917 L246.1788,280.4917 Z" id="Fill-35"></path>
            <polygon id="Fill-37" points="276.4561 323.9343 284.3211 323.9343 284.3211 280.4923 276.4561 280.4923"></polygon>
            <path d="M315.0005,304.3445 C314.4805,302.5975 313.4575,301.1755 311.9265,300.0815 C310.3965,298.9865 308.6235,298.4395 306.6035,298.4395 C304.4105,298.4395 302.4855,299.0545 300.8325,300.2825 C299.7925,301.0505 298.8315,302.4055 297.9455,304.3445 L315.0005,304.3445 Z M322.8655,310.5385 L297.6005,310.5385 C297.9655,312.7665 298.9405,314.5385 300.5235,315.8535 C302.1095,317.1685 304.1295,317.8255 306.5875,317.8255 C309.5265,317.8255 312.0515,316.7985 314.1645,314.7445 L320.7905,317.8555 C319.1385,320.1985 317.1615,321.9315 314.8555,323.0565 C312.5515,324.1795 309.8155,324.7405 306.6465,324.7405 C301.7295,324.7405 297.7255,323.1895 294.6335,320.0885 C291.5405,316.9875 289.9965,313.1025 289.9965,308.4355 C289.9965,303.6535 291.5355,299.6825 294.6195,296.5235 C297.7005,293.3645 301.5655,291.7845 306.2135,291.7845 C311.1495,291.7845 315.1625,293.3645 318.2555,296.5235 C321.3485,299.6825 322.8935,303.8545 322.8935,309.0405 L322.8655,310.5385 Z" id="Fill-39"></path>
            <path d="M344.0971,299.0437 C341.6661,299.0437 339.6461,299.9027 338.0381,301.6217 C336.4301,303.3417 335.6261,305.5457 335.6261,308.2337 C335.6261,310.9407 336.4441,313.1707 338.0821,314.9167 C339.7181,316.6647 341.7331,317.5387 344.1251,317.5387 C346.5951,317.5387 348.6421,316.6797 350.2701,314.9607 C351.8961,313.2417 352.7101,310.9897 352.7101,308.2047 C352.7101,305.4777 351.8961,303.2687 350.2701,301.5797 C348.6421,299.8887 346.5851,299.0437 344.0971,299.0437 L344.0971,299.0437 Z M352.3631,280.4917 L360.2281,280.4917 L360.2281,323.9347 L352.3631,323.9347 L352.3631,320.6207 C350.8301,322.0807 349.2901,323.1327 347.7451,323.7747 C346.2021,324.4197 344.5271,324.7407 342.7241,324.7407 C338.6771,324.7407 335.1751,323.1717 332.2221,320.0297 C329.2671,316.8897 327.7901,312.9867 327.7901,308.3197 C327.7901,303.4807 329.2201,299.5157 332.0771,296.4227 C334.9371,293.3307 338.4081,291.7847 342.4941,291.7847 C344.3751,291.7847 346.1391,292.1407 347.7891,292.8517 C349.4371,293.5617 350.9631,294.6267 352.3631,296.0477 L352.3631,280.4917 Z" id="Fill-40"></path>
        </g>
    </g>
</svg>