<?xml version="1.0" encoding="UTF-8"?>
<svg width="37px" height="37px" viewBox="0 0 37 37" version="1.1" xmlns="http://www.w3.org/2000/svg" xmlns:xlink="http://www.w3.org/1999/xlink">
    <!-- Generator: Sketch 63.1 (92452) - https://sketch.com -->
    <title>Play-icon</title>
    <desc>Created with Sketch.</desc>
    <g id="Symbols" stroke="none" stroke-width="1" fill="none" fill-rule="evenodd">
        <g id="play">
            <g id="Play-icon" transform="translate(0.750000, 0.750000)">
                <path d="M17.75,35.5 C27.5530543,35.5 35.5,27.5530543 35.5,17.75 C35.5,7.94694569 27.5530543,0 17.75,0 C7.94694569,0 0,7.94694569 0,17.75 C0,27.5530543 7.94694569,35.5 17.75,35.5 L17.75,35.5 Z" id="Shape" fill-opacity="0.710144928" fill="#FFFFFF" fill-rule="nonzero"></path>
                <path d="M23.9117581,17.1441501 L15.2102856,12.0012929 C15.1058679,11.9387929 14.9960955,11.9004 14.8702588,11.9004 C14.5284471,11.9004 14.2517849,12.1780786 14.2517849,12.5173643 L14.25,12.5173643 L14.25,13.9387929 L14.25,14.4030786 L14.25,14.5093286 L14.25,21.207543 L14.25,21.313793 L14.25,22.1870073 L14.25,23.2021859 L14.2517849,23.2021859 C14.2517849,23.5441502 14.5284471,23.8200431 14.8702588,23.8200431 C15.0005578,23.8200431 15.1058679,23.7745073 15.2209951,23.7111145 L23.9117581,18.5771858 C24.1179161,18.4066501 24.25,18.1486144 24.25,17.8611144 C24.25,17.5727215 24.1179161,17.3146858 23.9117581,17.1441501" id="Fill-1" fill="#8A288F"></path>
            </g>
        </g>
    </g>
</svg>