<?xml version="1.0" encoding="UTF-8"?>
<svg width="16px" height="13px" viewBox="0 0 16 13" version="1.1" xmlns="http://www.w3.org/2000/svg" xmlns:xlink="http://www.w3.org/1999/xlink">
    <!-- Generator: Sketch 63.1 (92452) - https://sketch.com -->
    <title>twitter</title>
    <desc>Created with Sketch.</desc>
    <g id="Design" stroke="none" stroke-width="1" fill="none" fill-rule="evenodd">
        <g id="Landing-Page" transform="translate(-1072.000000, -6738.000000)" fill="#6665FF" fill-rule="nonzero">
            <g id="twitter" transform="translate(1072.000000, 6738.000000)">
                <path d="M16,1.54 C15.412,1.80133333 14.7786667,1.97733333 14.1146667,2.05733333 C14.7933333,1.65066667 15.312,1.008 15.5586667,0.241333333 C14.924,0.617333333 14.2213333,0.890666667 13.4733333,1.03733333 C12.876,0.398666667 12.0213333,4.07673895e-13 11.0786667,4.07673895e-13 C8.95866667,4.07673895e-13 7.40133333,1.97733333 7.88,4.03066667 C5.15333333,3.89333333 2.73333333,2.58666667 1.11466667,0.601333333 C0.254666667,2.076 0.669333333,4.00666667 2.13066667,4.984 C1.59333333,4.96666667 1.088,4.81866667 0.645333333,4.57333333 C0.609333333,6.09333333 1.7,7.516 3.27866667,7.83333333 C2.81733333,7.95866667 2.31066667,7.988 1.796,7.88933333 C2.21333333,9.19333333 3.428,10.1413333 4.86266667,10.168 C3.48,11.2506667 1.74266667,11.7346667 -5.32907052e-15,11.5293333 C1.45333333,12.4613333 3.17733333,13.004 5.03066667,13.004 C11.1266667,13.004 14.5693333,7.856 14.3613333,3.23866667 C15.004,2.77733333 15.56,2.19866667 16,1.54 L16,1.54 Z"></path>
            </g>
        </g>
    </g>
</svg>